<?xml version="1.0" encoding="UTF-8" standalone="no"?>
<!DOCTYPE svg PUBLIC "-//W3C//DTD SVG 1.1//EN"
 "http://www.w3.org/Graphics/SVG/1.1/DTD/svg11.dtd">
<!-- Generated by graphviz version 2.50.0 (20211204.2007)
 -->
<!-- Pages: 1 -->
<svg width="154pt" height="188pt"
 viewBox="0.00 0.00 154.34 188.00" xmlns="http://www.w3.org/2000/svg" xmlns:xlink="http://www.w3.org/1999/xlink">
<g id="graph0" class="graph" transform="scale(1 1) rotate(0) translate(4 184)">
<polygon fill="white" stroke="transparent" points="-4,4 -4,-184 150.34,-184 150.34,4 -4,4"/>
<!-- Gabriel -->
<g id="node1" class="node">
<title>Gabriel</title>
<ellipse fill="none" stroke="black" cx="58.2" cy="-162" rx="37.09" ry="18"/>
<text text-anchor="middle" x="58.2" y="-158.3" font-family="Times,serif" font-size="14.00">Gabriel</text>
</g>
<!-- Ha -->
<g id="node2" class="node">
<title>Ha</title>
<ellipse fill="none" stroke="black" cx="86.2" cy="-90" rx="27" ry="18"/>
<text text-anchor="middle" x="86.2" y="-86.3" font-family="Times,serif" font-size="14.00">Ha</text>
</g>
<!-- Gabriel&#45;&gt;Ha -->
<g id="edge2" class="edge">
<title>Gabriel&#45;&gt;Ha</title>
<path fill="none" stroke="black" d="M64.98,-144.05C68.21,-135.97 72.15,-126.12 75.75,-117.11"/>
<polygon fill="black" stroke="black" points="79.02,-118.37 79.48,-107.79 72.52,-115.77 79.02,-118.37"/>
</g>
<!-- Anais -->
<g id="node3" class="node">
<title>Anais</title>
<ellipse fill="none" stroke="black" cx="31.2" cy="-18" rx="31.4" ry="18"/>
<text text-anchor="middle" x="31.2" y="-14.3" font-family="Times,serif" font-size="14.00">Anais</text>
</g>
<!-- Gabriel&#45;&gt;Anais -->
<g id="edge1" class="edge">
<title>Gabriel&#45;&gt;Anais</title>
<path fill="none" stroke="black" d="M54.94,-143.87C50.34,-119.67 41.89,-75.21 36.41,-46.39"/>
<polygon fill="black" stroke="black" points="39.77,-45.36 34.47,-36.19 32.9,-46.67 39.77,-45.36"/>
</g>
<!-- Ha&#45;&gt;Anais -->
<g id="edge3" class="edge">
<title>Ha&#45;&gt;Anais</title>
<path fill="none" stroke="black" d="M74.26,-73.81C67.08,-64.67 57.79,-52.85 49.68,-42.52"/>
<polygon fill="black" stroke="black" points="52.42,-40.34 43.49,-34.64 46.92,-44.67 52.42,-40.34"/>
</g>
<!-- Esther -->
<g id="node4" class="node">
<title>Esther</title>
<ellipse fill="none" stroke="black" cx="113.2" cy="-18" rx="33.29" ry="18"/>
<text text-anchor="middle" x="113.2" y="-14.3" font-family="Times,serif" font-size="14.00">Esther</text>
</g>
<!-- Ha&#45;&gt;Esther -->
<g id="edge4" class="edge">
<title>Ha&#45;&gt;Esther</title>
<path fill="none" stroke="black" d="M92.6,-72.41C95.71,-64.34 99.53,-54.43 103.03,-45.35"/>
<polygon fill="black" stroke="black" points="106.32,-46.55 106.66,-35.96 99.79,-44.03 106.32,-46.55"/>
</g>
</g>
</svg>
